<?xml version="1.0" encoding="UTF-8"?>
<svg width="141px" height="141px" viewBox="0 0 141 141" version="1.1" xmlns="http://www.w3.org/2000/svg" xmlns:xlink="http://www.w3.org/1999/xlink">
    <title>icon_driveway-teal</title>
    <g id="icon_driveway-teal" stroke="none" stroke-width="1" fill="none" fill-rule="evenodd">
        <g id="driveway-teal" fill-rule="nonzero">
            <path d="M140.387,70.382 C140.387,109.042 109.047,140.382 70.387,140.382 C31.727,140.382 0.387,109.042 0.387,70.382 C0.387,31.722 31.727,0.382 70.387,0.382 C109.047,0.382 140.387,31.722 140.387,70.382" id="Path" fill="#07A39D"></path>
            <path d="M105.184,92.698 C105.181796,94.5361945 103.692194,96.0257959 101.854,96.028 L38.92,96.028 C37.0818055,96.0257959 35.5922041,94.5361945 35.59,92.698 L35.59,86.401 C35.5922041,84.5628055 37.0818055,83.0732041 38.92,83.071 L101.854,83.071 C103.692194,83.0732041 105.181796,84.5628055 105.184,86.401 L105.184,92.698 L105.184,92.698 Z M45.258,57.622 L45.258,58.108 L53.658,58.108 L49.166,77.868 L38.92,77.868 C38.763,77.868 38.616,77.906 38.46,77.914 L45.258,57.622 Z M56.644,38.735 L58.062,38.735 L56.992,43.437 L50.011,43.437 L50.021,43.407 C51.533,40.477 53.998,38.735 56.644,38.735 L56.644,38.735 Z M91.104,43.437 L84.507,43.437 L83.437,38.735 L84.449,38.735 C87.165,38.735 89.744,40.647 91.104,43.437 L91.104,43.437 Z M92.333,77.867 L87.842,58.108 L95.908,58.108 L102.364,77.919 C102.192,77.909 102.029,77.867 101.854,77.867 L92.333,77.867 L92.333,77.867 Z M72.989,69.185 L85.024,69.185 L86.997,77.867 L72.989,77.867 L72.989,69.185 Z M56.476,69.185 L67.786,69.185 L67.786,77.867 L54.503,77.867 L56.476,69.185 Z M67.786,58.108 L67.786,63.982 L57.659,63.982 L58.995,58.108 L67.785,58.108 L67.786,58.108 Z M72.989,43.438 L72.989,38.735 L78.102,38.735 L79.171,43.437 L72.989,43.437 L72.989,43.438 Z M83.84,63.981 L72.989,63.981 L72.989,48.64 L80.354,48.64 L83.841,63.982 L83.84,63.981 Z M92.822,48.639 L94.211,52.904 L86.66,52.904 L85.69,48.639 L92.823,48.639 L92.822,48.639 Z M63.397,38.734 L67.785,38.734 L67.785,52.904 L60.175,52.904 L63.397,38.734 Z M54.839,52.904 L46.838,52.904 L48.267,48.639 L55.809,48.639 L54.839,52.904 L54.839,52.904 Z M109,81.766 C108.979,81.626 108.997,81.486 108.952,81.346 L95.984,41.607 C93.653,36.624 89.236,33.531 84.449,33.531 L56.644,33.531 C52.003,33.531 47.654,36.486 45.286,41.241 C45.2340883,41.3488563 45.1886739,41.4597209 45.15,41.573 L31.83,81.326 C31.782,81.471 31.798,81.617 31.776,81.764 C30.8712177,83.1414302 30.3881324,84.7529889 30.386,86.401 L30.386,92.698 C30.386,97.404 34.215,101.231 38.92,101.231 L101.854,101.231 C106.56,101.231 110.387,97.404 110.387,92.698 L110.387,86.401 C110.385718,84.7539236 109.90367,83.1430414 109,81.766 Z" id="Shape" fill="#FFFFFF"></path>
        </g>
    </g>
</svg>