<?xml version="1.0" encoding="UTF-8"?>
<svg width="141px" height="141px" viewBox="0 0 141 141" version="1.1" xmlns="http://www.w3.org/2000/svg" xmlns:xlink="http://www.w3.org/1999/xlink">
    <title>icon_veneer-teal</title>
    <g id="icon_veneer-teal" stroke="none" stroke-width="1" fill="none" fill-rule="evenodd">
        <g id="veneer-teal" fill-rule="nonzero">
            <path d="M140.387,70.382 C140.387,109.042 109.047,140.382 70.387,140.382 C31.727,140.382 0.387,109.042 0.387,70.382 C0.387,31.722 31.727,0.382 70.387,0.382 C109.047,0.382 140.387,31.722 140.387,70.382" id="Path" fill="#07A39D"></path>
            <path d="M67.498,53.888 L86.966,34.42 L93.986,41.339 L74.467,60.858 L67.498,53.888 L67.498,53.888 Z M57.108,64.278 L64.008,57.378 L83.583,76.953 L76.684,83.853 L57.108,64.278 L57.108,64.278 Z M46.72,53.888 L66.177,34.432 L73.075,41.332 L53.619,60.787 L46.72,53.887 L46.72,53.888 Z M66.177,80.324 L73.194,87.343 L53.695,106.843 L46.676,99.825 L66.177,80.324 Z M55.742,83.779 L36.285,64.322 L43.228,57.378 L62.686,76.833 L55.741,83.779 L55.742,83.779 Z M93.908,87.278 L74.48,106.705 L67.646,99.87 L87.073,80.444 L93.907,87.278 L93.908,87.278 Z M104.372,76.814 L97.398,83.789 L77.958,64.348 L84.931,57.375 L104.372,76.814 Z M109.607,75.069 L88.42,53.885 L99.232,43.074 C99.6983188,42.6090307 99.9587473,41.9765101 99.955,41.318 C99.9504934,40.660736 99.6867091,40.0318225 99.221,39.568 L88.686,29.188 C87.7201938,28.2367406 86.1683201,28.2412026 85.208,29.198 L76.564,37.843 L67.921,29.198 C66.989,28.268 65.356,28.271 64.431,29.198 L31.05,62.576 C30.0877947,63.5411514 30.0877947,65.1028486 31.05,66.068 L52.251,87.268 L41.441,98.08 C40.9756435,98.5417248 40.7137354,99.1700334 40.7133599,99.8255838 C40.7129845,100.481134 40.9741727,101.109742 41.439,101.572 L51.946,112.079 C52.4087088,112.54319 53.037584,112.803452 53.693,112.802006 C54.354,112.802006 54.975,112.545 55.438,112.079 L64.158,103.361 L72.734,111.94 C73.669,112.87 75.292,112.87 76.226,111.94 L109.606,78.56 C110.56809,77.5951912 110.56809,76.0338088 109.606,75.069 L109.607,75.069 Z" id="Shape" fill="#FFFFFF"></path>
        </g>
    </g>
</svg>