<?xml version="1.0" encoding="UTF-8"?>
<svg width="141px" height="141px" viewBox="0 0 141 141" version="1.1" xmlns="http://www.w3.org/2000/svg" xmlns:xlink="http://www.w3.org/1999/xlink">
    <title>icon_patio-teal</title>
    <g id="icon_patio-teal" stroke="none" stroke-width="1" fill="none" fill-rule="evenodd">
        <g id="patio-teal" fill-rule="nonzero">
            <path d="M140.387,70.382 C140.387,109.042 109.047,140.382 70.387,140.382 C31.727,140.382 0.387,109.042 0.387,70.382 C0.387,31.722 31.727,0.382 70.387,0.382 C109.047,0.382 140.387,31.722 140.387,70.382" id="Path" fill="#07A39D"></path>
            <path d="M70.303,37.986 C87.956,37.986 97.123,43.858 101.38,47.974 L39.372,47.974 C43.602,43.868 52.727,37.986 70.302,37.986 M33.831,53.3660007 L106.94,53.3660007 C107.876914,53.3666748 108.746945,52.880705 109.237684,52.0825921 C109.728422,51.2844792 109.769437,50.2887689 109.346,49.453 C108.996,48.763 100.466,32.593 70.303,32.593 C40.123,32.593 31.757,48.783 31.415,49.473 C31.0014895,50.308772 31.0490396,51.2988535 31.5407405,52.0911514 C32.0324414,52.8834493 32.8985272,53.3655467 33.831,53.3660007 M108.466,58.334 C107.039904,57.9063789 105.536787,58.7138573 105.106,60.139 L99.876,77.534 L84.236,77.534 C83.2728119,77.5339999 82.3827894,78.0478546 81.9011954,78.882 C81.4196013,79.7161453 81.4196013,80.7438547 81.9011954,81.578 C82.3827894,82.4121454 83.2728119,82.9260001 84.236,82.926 L86.565,82.926 L83.458,92.746 L73.082,92.746 L73.082,57.772 C73.082,56.2833165 71.8751835,55.0765 70.3865,55.0765 C68.8978165,55.0765 67.691,56.2833165 67.691,57.772 L67.691,92.748 L57.313,92.748 L54.207,82.927 L56.536,82.927 C57.4991881,82.9270001 58.3892106,82.4131454 58.8708046,81.579 C59.3523987,80.7448547 59.3523987,79.7171453 58.8708046,78.883 C58.3892106,78.0488546 57.4991881,77.5349999 56.536,77.535 L40.896,77.535 L35.664,60.14 C35.232732,58.7162546 33.7314081,57.9092594 32.306,58.335 C30.8798333,58.7639822 30.0713218,60.2677419 30.5,61.694 L36.118,80.371 L32.008,94.701 C31.742373,95.6273897 31.9911466,96.6251193 32.6606101,97.3183539 C33.3300736,98.0115884 34.3185196,98.295009 35.2536101,98.0618539 C36.1887006,97.8286987 36.928373,97.1143897 37.194,96.188 L40.994,82.927 L48.553,82.927 L52.768,96.257 C52.782,96.304 52.815,96.339 52.832,96.384 C52.872,96.494 52.932,96.588 52.987,96.69 C53.087,96.88 53.199,97.055 53.337,97.212 C53.5563829,97.4587877 53.8203257,97.6620032 54.115,97.811 C54.205,97.858 54.285,97.911 54.383,97.947 C54.687,98.064 55.003,98.1420514 55.337,98.1420514 L55.346,98.14 L85.424,98.14 L85.433,98.1420514 C85.766,98.1420514 86.083,98.064 86.388,97.947 C86.485,97.911 86.568,97.857 86.658,97.81 C86.9514224,97.6603714 87.2145408,97.4576076 87.434,97.212 C87.573,97.055 87.684,96.881 87.784,96.691 C87.839,96.588 87.899,96.494 87.94,96.384 C87.956,96.339 87.989,96.304 88.003,96.258 L92.22,82.927 L99.778,82.927 L103.578,96.187 C103.990008,97.6181918 105.483086,98.445492 106.915,98.036 C107.6025,97.8390346 108.183572,97.37698 108.530342,96.7515186 C108.877112,96.1260571 108.961164,95.3884431 108.764,94.701 L104.654,80.371 L110.271,61.694 C110.477484,61.009077 110.403286,60.27017 110.064744,59.639976 C109.726202,59.009782 109.151076,58.539975 108.466,58.334" id="Shape" fill="#FFFFFF"></path>
        </g>
    </g>
</svg>