<?xml version="1.0" encoding="UTF-8"?>
<svg width="141px" height="141px" viewBox="0 0 141 141" version="1.1" xmlns="http://www.w3.org/2000/svg" xmlns:xlink="http://www.w3.org/1999/xlink">
    <title>icon_pool-teal</title>
    <g id="icon_pool-teal" stroke="none" stroke-width="1" fill="none" fill-rule="evenodd">
        <g id="pool-teal" fill-rule="nonzero">
            <path d="M140.387,70.382 C140.387,109.042 109.047,140.382 70.387,140.382 C31.727,140.382 0.387,109.042 0.387,70.382 C0.387,31.722 31.727,0.382 70.387,0.382 C109.047,0.382 140.387,31.722 140.387,70.382" id="Path" fill="#07A39D"></path>
            <path d="M56.184,68.75 C56.999,68.187 58.169,68.19 58.988,68.75 L56.184,68.75 Z M58.883,90.656 C58.0230509,91.9458816 56.6465731,92.8000711 55.109,92.998 L55.109,90.558 L58.952,90.558 C58.929,90.59 58.907,90.624 58.882,90.656 L58.883,90.656 Z M67.559,90.557 L67.559,92.654 C66.5588731,92.2514244 65.7045319,91.5547005 65.109,90.656 C65.085,90.624 65.063,90.59 65.039,90.557 L67.559,90.557 L67.559,90.557 Z M104.395,90.424 C104.325483,90.4960557 104.26194,90.5736447 104.205,90.656 C103.218632,92.1459354 101.550849,93.0419668 99.764,93.0419668 C97.9771511,93.0419668 96.3093678,92.1459354 95.323,90.656 C94.6319406,89.6107642 93.4630279,88.9814364 92.21,88.98 C90.9568811,88.9810762 89.7878088,89.61049 89.097,90.656 C88.1109313,92.1460111 86.4427463,93.0415196 84.656,93.04 C82.869435,93.0407975 81.2015704,92.145461 80.215,90.656 C79.5245122,89.6106481 78.3558098,88.9812313 77.103,88.98 C75.8501902,88.9812313 74.6814878,89.6106481 73.991,90.656 C73.4926327,91.4095132 72.8100593,92.0232441 72.008,92.439 L72.008,73.202 L104.395,73.202 L104.395,90.424 L104.395,90.424 Z M46.887,93.922 C48.748728,96.1765601 51.5181256,97.4844636 54.442,97.49 C57.3653947,97.4848479 60.1343347,96.1768143 61.995,93.922 C63.8556653,96.1768143 66.6246053,97.4848479 69.548,97.49 C72.4719375,97.4847433 75.2414481,96.1767865 77.103,93.922 C78.9636653,96.1768143 81.7326053,97.4848479 84.656,97.49 C87.5796503,97.4847256 90.3488473,96.1767438 92.21,93.922 C94.0706184,96.1763186 96.8390186,97.4842704 99.762,97.49 C101.344,97.49 102.932,97.065 104.395,96.258 L104.395,99.375 C104.327,99.451 104.259,99.525 104.205,99.61 C103.217386,101.098153 101.550051,101.992727 99.764,101.992727 C97.9779487,101.992727 96.3106137,101.098153 95.323,99.61 C94.6319406,98.5647642 93.4630279,97.9354364 92.21,97.934 C90.9568811,97.9350762 89.7878088,98.56449 89.097,99.61 C88.110609,101.10016 86.4425115,101.996181 84.6554626,101.995855 C82.8684136,101.995376 81.2007198,101.098604 80.215,99.608 C79.5240311,98.5633033 78.3555283,97.9343695 77.103,97.933 C75.853,97.933 74.69,98.559 73.991,99.61 C73.0029155,101.098132 71.3352945,101.992617 69.549,101.992617 C67.7627055,101.992617 66.0950845,101.098132 65.107,99.61 C64.4168683,98.5641299 63.248046,97.9342729 61.995,97.933 C60.7419996,97.9344532 59.5732572,98.5642672 58.883,99.61 C57.8961602,101.099914 56.2280913,101.995855 54.441,101.995855 C52.6539087,101.995855 50.9858398,101.099914 49.999,99.61 C49.3088683,98.5641299 48.140046,97.9342729 46.887,97.933 C45.6345263,97.9344027 44.4663639,98.5643089 43.777,99.61 C42.7888273,101.098467 41.1206218,101.992832 39.334,101.992 C37.506117,101.999741 35.8036527,101.063631 34.831,99.516 L34.831,96.396 C36.2225879,97.1163981 37.7670004,97.4916118 39.334,97.49 C42.2574577,97.485128 45.0265109,96.1770409 46.887,93.922 L46.887,93.922 Z M50.659,91.465 C50.4133014,91.2173603 50.1922616,90.946419 49.999,90.656 C49.3096568,89.6104151 48.1413742,88.9808197 46.889,88.98 C45.6360079,88.9805094 44.4669854,89.6100987 43.777,90.656 C42.7892874,92.1452282 41.1210022,93.0403873 39.334,93.0400685 C37.5057361,93.049297 35.802724,92.1122999 34.832,90.563 L34.832,73.203 L50.659,73.203 L50.659,91.465 L50.659,91.465 Z M96.499,37.051 C100.971,39.486 104.286,44.084 105.534,49.629 L99.346,49.629 C98.963,44.981 98.062,40.825 96.732,37.591 C96.655,37.409 96.579,37.228 96.5,37.051 L96.499,37.051 Z M83.978,49.63 C84.85,39.58 87.992,35.221 89.43,35.221 C90.869,35.221 94.01,39.579 94.882,49.631 L83.977,49.631 L83.978,49.63 Z M73.326,49.63 C74.574,44.087 77.888,39.49 82.359,37.053 C82.281,37.229 82.205,37.41 82.128,37.593 C80.797,40.831 79.894,44.987 79.513,49.63 L73.326,49.63 L73.326,49.63 Z M67.559,80.653 L67.559,86.107 L55.109,86.107 L55.109,80.653 L67.559,80.653 Z M67.559,73.202 L67.559,76.205 L55.109,76.205 L55.109,73.202 L67.559,73.202 Z M75.888,68.751 L73.083,68.751 C73.9,68.191 75.072,68.191 75.888,68.751 Z M108.156,54.082 C108.788,54.082 109.391,53.813 109.814,53.343 C110.234,52.873 110.434,52.245 110.371,51.617 C109.083,39.748 100.094,30.787 89.403,30.772 C78.767,30.786 69.778,39.748 68.492,51.617 C68.4244742,52.2452293 68.6269885,52.8725707 69.0490925,53.3427409 C69.4711966,53.812911 70.0731522,54.0816465 70.705,54.082 L87.205,54.082 L87.205,68.752 L81.108,68.752 C80.2128869,65.8461132 77.5276258,63.8634958 74.487,63.8634958 C71.4463742,63.8634958 68.7611131,65.8461132 67.866,68.752 L64.208,68.752 C63.313415,65.8452938 60.6277536,63.8618719 57.5865,63.8618719 C54.5452464,63.8618719 51.859585,65.8452938 50.965,68.752 L32.607,68.752 C31.3789167,68.7541998 30.3837516,69.7489178 30.381,70.977 L30.381,99.569 C30.381,102.167 34.016,104.86 34.199,104.992 C35.7427194,105.94323 37.5207421,106.445993 39.334,106.444006 C42.2579375,106.438743 45.0274481,105.130787 46.889,102.876 C48.7496653,105.130814 51.5186053,106.438848 54.442,106.444006 C57.3653947,106.438848 60.1343347,105.130814 61.995,102.876 C63.8556653,105.130814 66.6246053,106.438848 69.548,106.444006 C72.4720635,106.439303 75.2418004,105.13124 77.103,102.876 C78.9636653,105.130814 81.7326053,106.438848 84.656,106.444006 C87.5798395,106.439566 90.3493761,105.131424 92.21,102.876 C94.0711527,105.130744 96.8403497,106.438726 99.764,106.444006 C101.538,106.444006 103.321,105.911 104.928,104.897 L104.997,104.865 C105.153,104.787 108.846,102.923 108.846,98.669 L108.846,70.976 C108.844349,69.747689 107.84931,68.7522031 106.621,68.75 L91.655,68.75 L91.655,54.081 L108.155,54.081 L108.156,54.082 Z" id="Shape" fill="#FFFFFF"></path>
        </g>
    </g>
</svg>