<?xml version="1.0" encoding="UTF-8"?>
<svg width="141px" height="141px" viewBox="0 0 141 141" version="1.1" xmlns="http://www.w3.org/2000/svg" xmlns:xlink="http://www.w3.org/1999/xlink">
    <title>icon_rWalkway-teal</title>
    <g id="icon_rWalkway-teal" stroke="none" stroke-width="1" fill="none" fill-rule="evenodd">
        <g id="retainingWall-teal" fill-rule="nonzero">
            <path d="M140.387,70.382 C140.387,109.042 109.047,140.382 70.387,140.382 C31.727,140.382 0.387,109.042 0.387,70.382 C0.387,31.722 31.727,0.382 70.387,0.382 C109.047,0.382 140.387,31.722 140.387,70.382" id="Path" fill="#07A39D"></path>
            <path d="M76.128,51.743 L65.874,51.743 L65.067,60.344 L76.935,60.344 L76.128,51.744 L76.128,51.743 Z M75.208,40.061 L66.795,40.061 L66.145,47.084 L75.858,47.084 L75.208,40.061 L75.208,40.061 Z M105.156,94.319 C105.156,98.317 101.902,101.569 97.902,101.569 L44.098,101.569 C40.098,101.569 36.844,98.317 36.844,94.319 L36.844,85.827 C36.844,81.828 40.098,78.577 44.098,78.577 L97.902,78.577 C101.902,78.577 105.156,81.828 105.156,85.827 L105.156,94.319 Z M51.086,44.974 C52.514,41.812 54.926,39.847 57.377,39.847 L84.94,39.847 C87.48,39.847 89.938,41.917 91.284,45.077 L101.175,73.193 C100.123,72.92 99.039,72.729 97.903,72.729 L77.85,72.729 L77.204,65.804 L64.798,65.804 L64.152,72.729 L44.098,72.729 C42.994,72.729 41.939,72.909 40.914,73.166 L51.086,44.974 L51.086,44.974 Z M109.649,80.145 C109.633,79.882 109.631,79.618 109.539,79.357 L96.731,42.964 C94.383,37.434 89.865,34 84.939,34 L57.377,34 C52.595,34 48.145,37.285 45.673,42.78 L32.471,79.334 C32.374,79.601 32.368,79.872 32.352,80.142 C31.512,81.868 31,83.782 31,85.826 L31,94.318 C31,101.54 36.874,107.415 44.098,107.415 L97.902,107.415 C105.126,107.415 111,101.54 111,94.318 L111,85.827 C111,83.783 110.488,81.871 109.65,80.145 L109.649,80.145 Z" id="Shape" fill="#FFFFFF"></path>
        </g>
    </g>
</svg>