<?xml version="1.0" encoding="UTF-8"?>
<svg width="141px" height="141px" viewBox="0 0 141 141" version="1.1" xmlns="http://www.w3.org/2000/svg" xmlns:xlink="http://www.w3.org/1999/xlink">
    <title>icon_retainingWall-teal</title>
    <g id="icon_retainingWall-teal" stroke="none" stroke-width="1" fill="none" fill-rule="evenodd">
        <g id="retainingWall-teal" fill-rule="nonzero">
            <path d="M140.387,70.382 C140.387,109.042 109.047,140.382 70.387,140.382 C31.727,140.382 0.387,109.042 0.387,70.382 C0.387,31.722 31.727,0.382 70.387,0.382 C109.047,0.382 140.387,31.722 140.387,70.382" id="Path" fill="#07A39D"></path>
            <path d="M97.288,87.119 L105.694,87.119 L105.694,78.867 L97.288,78.867 L97.288,87.119 Z M36.963,101.003 L54.625,101.003 L54.625,92.753 L36.963,92.753 L36.963,101.003 L36.963,101.003 Z M36.963,87.119 L45.368,87.119 L45.368,78.867 L36.963,78.867 L36.963,87.119 Z M36.963,59.346 L45.368,59.346 L45.368,51.096 L36.963,51.096 L36.963,59.346 Z M60.259,73.232 L82.398,73.232 L82.398,64.98 L60.259,64.98 L60.259,73.232 L60.259,73.232 Z M51.003,59.346 L68.512,59.346 L68.512,51.096 L51.003,51.096 L51.003,59.346 L51.003,59.346 Z M36.963,45.461 L54.625,45.461 L54.625,37.209 L36.963,37.209 L36.963,45.461 L36.963,45.461 Z M36.963,73.232 L54.625,73.232 L54.625,64.98 L36.963,64.98 L36.963,73.232 L36.963,73.232 Z M51.003,87.119 L68.512,87.119 L68.512,78.867 L51.003,78.867 L51.003,87.119 L51.003,87.119 Z M60.259,101.003 L82.398,101.003 L82.398,92.753 L60.259,92.753 L60.259,101.003 L60.259,101.003 Z M74.145,87.119 L91.654,87.119 L91.654,78.867 L74.145,78.867 L74.145,87.119 Z M57.444,31.577 C58.9979962,31.5786535 60.2573465,32.8380038 60.259,34.392 L60.259,34.392 L60.259,45.462 L71.327,45.462 C72.8824918,45.46255 74.1437937,46.7225097 74.146,48.278 L74.146,48.278 L74.146,59.346 L85.214,59.346 C86.7697192,59.3471036 88.0304485,60.6082805 88.031,62.164 L88.031,62.164 L88.031,73.232 L108.512,73.232 C110.06671,73.2342044 111.326348,74.4942891 111.328,76.049 L111.328,76.049 L111.328,103.821 C111.328,105.376329 110.067329,106.637345 108.512,106.639 L108.512,106.639 L34.145,106.639 C32.5895092,106.637346 31.3291023,105.376491 31.328,103.821 L31.328,103.821 L31.328,34.392 C31.330755,32.8376804 32.5906788,31.5786511 34.145,31.577 L34.145,31.577 Z M105.694,92.753 L88.031,92.753 L88.031,101.003 L105.694,101.003 L105.694,92.753 Z" id="Shape" fill="#FFFFFF"></path>
        </g>
    </g>
</svg>