<?xml version="1.0" encoding="UTF-8"?>
<svg width="19px" height="18px" viewBox="0 0 19 18" version="1.1" xmlns="http://www.w3.org/2000/svg" xmlns:xlink="http://www.w3.org/1999/xlink">
    <!-- Generator: sketchtool 64 (101010) - https://sketch.com -->
    <title>F882F230-D6B9-451D-959A-4EA4385388B7</title>
    <desc>Created with sketchtool.</desc>
    <defs>
        <path d="M13.845375,-3.99680289e-15 C14.1767458,-3.99680289e-15 14.445375,0.26862915 14.445375,0.6 L14.445375,0.6 L14.444375,1.799 L15.645375,1.8 C16.9708584,1.8 18.045375,2.8745166 18.045375,4.2 L18.045375,15 C18.045375,16.3254834 16.9708584,17.4 15.645375,17.4 L2.445375,17.4 C1.1198916,17.4 0.045375,16.3254834 0.045375,15 L0.045375,4.2 C0.045375,2.8745166 1.1198916,1.8 2.445375,1.8 L3.644375,1.799 L3.645375,0.6 C3.645375,0.301766235 3.86296461,0.054353247 4.14805188,0.00785298705 L4.245375,-3.99680289e-15 C4.57674585,-3.99680289e-15 4.845375,0.26862915 4.845375,0.6 L4.845375,0.6 L4.845375,1.799 L13.245375,1.799 L13.245375,0.6 C13.245375,0.301766235 13.4629646,0.054353247 13.7480519,0.00785298705 Z M16.845375,6.6 L1.245375,6.6 L1.245375,15 C1.245375,15.6627417 1.7826333,16.2 2.445375,16.2 L15.645375,16.2 C16.3081167,16.2 16.845375,15.6627417 16.845375,15 L16.845375,6.6 Z M4.245375,13.26 C4.53992687,13.26 4.78490504,13.4143638 4.8357082,13.6179267 L4.845375,13.6963636 L4.845375,14.0236364 C4.845375,14.2646333 4.57674585,14.46 4.245375,14.46 C3.95082313,14.46 3.70584496,14.3056362 3.6550418,14.1020733 L3.645375,14.0236364 L3.645375,13.6963636 C3.645375,13.4553667 3.91400415,13.26 4.245375,13.26 Z M6.645375,13.26 C6.93992687,13.26 7.18490504,13.4143638 7.2357082,13.6179267 L7.245375,13.6963636 L7.245375,14.0236364 C7.245375,14.2646333 6.97674585,14.46 6.645375,14.46 C6.35082313,14.46 6.10584496,14.3056362 6.0550418,14.1020733 L6.045375,14.0236364 L6.045375,13.6963636 C6.045375,13.4553667 6.31400415,13.26 6.645375,13.26 Z M9.045375,13.26 C9.33992687,13.26 9.58490504,13.4143638 9.6357082,13.6179267 L9.645375,13.6963636 L9.645375,14.0236364 C9.645375,14.2646333 9.37674585,14.46 9.045375,14.46 C8.75082313,14.46 8.50584496,14.3056362 8.4550418,14.1020733 L8.445375,14.0236364 L8.445375,13.6963636 C8.445375,13.4553667 8.71400415,13.26 9.045375,13.26 Z M11.445375,13.26 C11.7399269,13.26 11.984905,13.4143638 12.0357082,13.6179267 L12.045375,13.6963636 L12.045375,14.0236364 C12.045375,14.2646333 11.7767458,14.46 11.445375,14.46 C11.1508231,14.46 10.905845,14.3056362 10.8550418,14.1020733 L10.845375,14.0236364 L10.845375,13.6963636 C10.845375,13.4553667 11.1140042,13.26 11.445375,13.26 Z M13.845375,13.26 C14.1399269,13.26 14.384905,13.4143638 14.4357082,13.6179267 L14.445375,13.6963636 L14.445375,14.0236364 C14.445375,14.2646333 14.1767458,14.46 13.845375,14.46 C13.5508231,14.46 13.305845,14.3056362 13.2550418,14.1020733 L13.245375,14.0236364 L13.245375,13.6963636 C13.245375,13.4553667 13.5140042,13.26 13.845375,13.26 Z M4.245375,10.86 C4.53992687,10.86 4.78490504,11.0143638 4.8357082,11.2179267 L4.845375,11.2963636 L4.845375,11.6236364 C4.845375,11.8646333 4.57674585,12.06 4.245375,12.06 C3.95082313,12.06 3.70584496,11.9056362 3.6550418,11.7020733 L3.645375,11.6236364 L3.645375,11.2963636 C3.645375,11.0553667 3.91400415,10.86 4.245375,10.86 Z M6.645375,10.86 C6.93992687,10.86 7.18490504,11.0143638 7.2357082,11.2179267 L7.245375,11.2963636 L7.245375,11.6236364 C7.245375,11.8646333 6.97674585,12.06 6.645375,12.06 C6.35082313,12.06 6.10584496,11.9056362 6.0550418,11.7020733 L6.045375,11.6236364 L6.045375,11.2963636 C6.045375,11.0553667 6.31400415,10.86 6.645375,10.86 Z M9.045375,10.86 C9.33992687,10.86 9.58490504,11.0143638 9.6357082,11.2179267 L9.645375,11.2963636 L9.645375,11.6236364 C9.645375,11.8646333 9.37674585,12.06 9.045375,12.06 C8.75082313,12.06 8.50584496,11.9056362 8.4550418,11.7020733 L8.445375,11.6236364 L8.445375,11.2963636 C8.445375,11.0553667 8.71400415,10.86 9.045375,10.86 Z M13.845375,10.86 C14.1399269,10.86 14.384905,11.0143638 14.4357082,11.2179267 L14.445375,11.2963636 L14.445375,11.6236364 C14.445375,11.8646333 14.1767458,12.06 13.845375,12.06 C13.5508231,12.06 13.305845,11.9056362 13.2550418,11.7020733 L13.245375,11.6236364 L13.245375,11.2963636 C13.245375,11.0553667 13.5140042,10.86 13.845375,10.86 Z M4.245375,8.46 C4.53992687,8.46 4.78490504,8.61436378 4.8357082,8.81792672 L4.845375,8.89636364 L4.845375,9.22363636 C4.845375,9.46463335 4.57674585,9.66 4.245375,9.66 C3.95082313,9.66 3.70584496,9.50563622 3.6550418,9.30207328 L3.645375,9.22363636 L3.645375,8.89636364 C3.645375,8.65536665 3.91400415,8.46 4.245375,8.46 Z M6.645375,8.46 C6.93992687,8.46 7.18490504,8.61436378 7.2357082,8.81792672 L7.245375,8.89636364 L7.245375,9.22363636 C7.245375,9.46463335 6.97674585,9.66 6.645375,9.66 C6.35082313,9.66 6.10584496,9.50563622 6.0550418,9.30207328 L6.045375,9.22363636 L6.045375,8.89636364 C6.045375,8.65536665 6.31400415,8.46 6.645375,8.46 Z M9.045375,8.46 C9.33992687,8.46 9.58490504,8.61436378 9.6357082,8.81792672 L9.645375,8.89636364 L9.645375,9.22363636 C9.645375,9.46463335 9.37674585,9.66 9.045375,9.66 C8.75082313,9.66 8.50584496,9.50563622 8.4550418,9.30207328 L8.445375,9.22363636 L8.445375,8.89636364 C8.445375,8.65536665 8.71400415,8.46 9.045375,8.46 Z M11.445375,8.46 C11.7399269,8.46 11.984905,8.61436378 12.0357082,8.81792672 L12.045375,8.89636364 L12.045375,9.22363636 C12.045375,9.46463335 11.7767458,9.66 11.445375,9.66 C11.1508231,9.66 10.905845,9.50563622 10.8550418,9.30207328 L10.845375,9.22363636 L10.845375,8.89636364 C10.845375,8.65536665 11.1140042,8.46 11.445375,8.46 Z M13.845375,8.46 C14.1399269,8.46 14.384905,8.61436378 14.4357082,8.81792672 L14.445375,8.89636364 L14.445375,9.22363636 C14.445375,9.46463335 14.1767458,9.66 13.845375,9.66 C13.5508231,9.66 13.305845,9.50563622 13.2550418,9.30207328 L13.245375,9.22363636 L13.245375,8.89636364 C13.245375,8.65536665 13.5140042,8.46 13.845375,8.46 Z M15.645375,3 L2.445375,3 C1.7826333,3 1.245375,3.5372583 1.245375,4.2 L1.245375,5.4 L16.845375,5.4 L16.845375,5.4 L16.845375,4.2 C16.845375,3.5372583 16.3081167,3 15.645375,3 Z" id="path-1"></path>
    </defs>
    <g id="Dashboard---AdminSide" stroke="none" stroke-width="1" fill="none" fill-rule="evenodd">
        <g id="AdminSide---Dashboard---NavbarExpanded" transform="translate(-19.000000, -125.000000)">
            <g id="leftNavBar-expanded" transform="translate(-1.000000, 64.000000)">
                <g id="Group-2" transform="translate(19.500000, 60.000000)">
                    <g id="icon_calendar" transform="translate(0.000000, 1.000000)">
                        <g id="gray-bg" transform="translate(0.954625, -0.000000)">
                            <mask id="mask-2" fill="white">
                                <use xlink:href="#path-1"></use>
                            </mask>
                            <use id="Mask" fill="#ffffff" fill-rule="nonzero" xlink:href="#path-1"></use>
                            <g mask="url(#mask-2)" fill="#07A39D" id="Rectangle">
                                <g transform="translate(0.000000, 0.060000)">
                                    <rect x="0" y="0" width="18" height="18"></rect>
                                </g>
                            </g>
                        </g>
                    </g>
                </g>
            </g>
        </g>
    </g>
</svg>
