<svg width="19" height="18" xmlns="http://www.w3.org/2000/svg">
 <title>icon/contractors/normal</title>

 <g>
  <title>background</title>
  <rect fill="none" id="canvas_background" height="20" width="21" y="-1" x="-1"/>
 </g>
 <g>
  <title>Layer 1</title>
  <g stroke="null" fill-rule="evenodd" fill="none" id="icon/contractors/normal">
   <g stroke="#3E3E3E" stroke-width="0.2" fill-rule="nonzero" fill="#3E3E3E" id="contractors">
    <path stroke="null" id="Shape" d="m17.20646,8.67989l-0.71088,-0.3057l0,-0.48608c0.00998,-2.98332 -1.87238,-5.64509 -4.68856,-6.62959l0,-0.68503c0,-0.20334 -0.16502,-0.36836 -0.36824,-0.36836l-3.94098,0c-0.20321,0 -0.36823,0.16502 -0.36823,0.36836l0,0.68866c-2.81618,0.98449 -4.69855,3.64627 -4.68856,6.62959l0,0.48982l-0.70352,0.29833c-0.13631,0.05754 -0.22468,0.19123 -0.22468,0.3389l0,1.93367c0,0.20321 0.16502,0.36823 0.36836,0.36823l0.47883,0l0,0.73672c0,0.20322 0.1649,0.36824 0.36823,0.36824l1.32228,0c0.12557,0.4611 0.31006,0.90461 0.54873,1.31853l-0.93543,0.93556c-0.14293,0.14356 -0.14293,0.3756 0,0.51928l1.56531,1.56531c0.14355,0.14293 0.3756,0.14293 0.51927,0l0.93544,-0.93544c0.41292,0.23867 0.85493,0.42278 1.31491,0.54873l0,1.32227c0,0.20322 0.16502,0.36824 0.36836,0.36824l2.20978,0c0.20334,0 0.36836,-0.16502 0.36836,-0.36824l0,-1.32227c0.4611,-0.12557 0.90448,-0.30969 1.31852,-0.54873l0.93557,0.93544c0.14355,0.14293 0.3756,0.14293 0.51927,0l1.56531,-1.56531c0.14292,-0.14368 0.14292,-0.37572 0,-0.51928l-0.93557,-0.93556c0.23866,-0.41392 0.42328,-0.85742 0.54886,-1.31853l1.32214,0c0.20334,0 0.36836,-0.16502 0.36836,-0.36824l0,-0.73672l0.47883,0c0.20333,0 0.36823,-0.16502 0.36823,-0.36823l0,-1.93367c-0.00075,-0.14879 -0.09087,-0.28248 -0.22831,-0.3389zm-9.34766,-7.73442l3.21163,0l0,6.15438l-3.20426,0l-0.00737,-6.15438zm7.99593,10.74358l-1.22641,0c-0.17675,-0.00412 -0.33116,0.11821 -0.36835,0.29084c-0.12408,0.57682 -0.35238,1.12592 -0.67393,1.6206c-0.09474,0.14555 -0.0744,0.3374 0.04781,0.46036l0.88026,0.88026l-1.0534,1.04604l-0.88026,-0.88026c-0.12296,-0.12221 -0.31481,-0.14255 -0.46036,-0.04781c-0.49468,0.32142 -1.04379,0.54985 -1.6206,0.67393c-0.17276,0.03721 -0.29497,0.19161 -0.29097,0.36836l0,1.24114l-1.47318,0l0,-1.25225c0.00412,-0.17675 -0.11821,-0.33103 -0.29096,-0.36823c-0.57669,-0.12383 -1.12592,-0.35213 -1.62048,-0.67406c-0.14555,-0.09462 -0.33741,-0.0744 -0.46048,0.04793l-0.88026,0.88026l-1.0423,-1.04241l0.88027,-0.88027c0.12233,-0.12295 0.14255,-0.3148 0.04793,-0.46035c-0.32455,-0.49168 -0.5566,-1.03829 -0.68504,-1.61324c-0.03732,-0.17263 -0.1916,-0.29496 -0.36836,-0.29084l-1.22641,0l0,-0.36836l3.36629,0c0.20185,1.66405 1.71447,2.84926 3.37851,2.64704c1.38631,-0.16826 2.47903,-1.26073 2.64704,-2.64704l3.37004,0l0.00361,0.36836zm-8.64788,-0.36836l4.5339,0c-0.2026,1.25299 -1.38269,2.10455 -2.63556,1.90196c-0.9775,-0.15803 -1.74393,-0.92446 -1.90196,-1.90196c0,0 0.00362,0 0.00362,0zm9.49508,-0.73659l-14.45613,0l0,-1.32228l0.71075,-0.3057c0.13631,-0.05741 0.22468,-0.19111 0.22468,-0.3389l0,-0.73659c-0.00811,-2.57227 1.55794,-4.88741 3.94835,-5.8377l0,5.42527c0,0.20322 0.16489,0.36824 0.36823,0.36824l3.94822,0c0.20334,0 0.36836,-0.16502 0.36836,-0.36824l0,-5.42527c2.39439,0.94992 3.96233,3.26954 3.95196,5.84506l0,0.73673c0,0.14767 0.08837,0.28135 0.22468,0.33877l0.71088,0.3057l0,1.31491l0,0z"/>
   </g>
  </g>
 </g>
</svg>