<?xml version="1.0" encoding="UTF-8"?>
<svg width="19px" height="15px" viewBox="0 0 19 15" version="1.1" xmlns="http://www.w3.org/2000/svg" xmlns:xlink="http://www.w3.org/1999/xlink">
    <!-- Generator: sketchtool 64 (101010) - https://sketch.com -->
    <title>1BCFC53F-4210-477D-96B4-B3B41D9D28EB</title>
    <desc>Created with sketchtool.</desc>
    <g id="Dashboard---AdminSide" stroke="none" stroke-width="1" fill="none" fill-rule="evenodd">
        <g id="AdminSide---Dashboard---NavbarExpanded" transform="translate(-19.000000, -206.000000)" fill="#3E3E3E" fill-rule="nonzero">
            <g id="leftNavBar-expanded" transform="translate(-1.000000, 64.000000)">
                <g id="Group-4" transform="translate(20.500000, 140.000000)">
                    <g id="icon_customers" transform="translate(0.000000, 2.000000)">
                        <g id="Combined-Shape">
                            <path d="M10.5572461,6.56296875 C11.5826484,6.56296875 12.4725234,7.15169531 12.9083906,8.00852344 C13.1293477,7.94826562 13.3615195,7.9155 13.6013203,7.9155 L13.6013203,7.9155 L15.3632812,7.9155 C16.817168,7.9155 18,9.09833203 18,10.5522187 L18,10.5522187 L18,13.3688672 C18,14.2411992 17.2903008,14.9508984 16.4179688,14.9508984 L16.4179688,14.9508984 L1.58203125,14.9508984 C0.709699219,14.9508984 0,14.2411992 0,13.3688672 L0,13.3688672 L0,10.5522187 C0,9.09833203 1.18283203,7.9155 2.63671875,7.9155 L2.63671875,7.9155 L4.39867969,7.9155 C4.63848047,7.9155 4.87065234,7.94826562 5.09160938,8.00852344 C5.52747656,7.15169531 6.41735156,6.56296875 7.44275391,6.56296875 L7.44275391,6.56296875 Z M4.39867969,8.97022266 L2.63671875,8.97022266 C1.76438672,8.97022266 1.0546875,9.67992187 1.0546875,10.5522539 L1.0546875,10.5522539 L1.0546875,13.3689023 C1.0546875,13.6596797 1.29125391,13.8962461 1.58203125,13.8962461 L1.58203125,13.8962461 L4.80603516,13.8962461 L4.80603516,9.19975781 C4.80603516,9.1411875 4.80863672,9.08317969 4.81243359,9.02548828 C4.68045703,8.98966406 4.54183594,8.97022266 4.39867969,8.97022266 L4.39867969,8.97022266 Z M10.5572461,7.61769141 L7.44275391,7.61769141 C6.57042188,7.61769141 5.86072266,8.32739062 5.86072266,9.19972266 L5.86072266,9.19972266 L5.86072266,13.8962461 L12.1392773,13.8962461 L12.1392773,9.19972266 C12.1392773,8.32739062 11.4295781,7.61769141 10.5572461,7.61769141 L10.5572461,7.61769141 Z M15.3632812,8.9701875 L13.6013203,8.9701875 C13.4581641,8.9701875 13.319543,8.98966406 13.1875664,9.02545312 C13.1913633,9.08310937 13.1939648,9.14111719 13.1939648,9.19972266 L13.1939648,9.19972266 L13.1939648,13.8962461 L16.4179688,13.8962461 C16.7087461,13.8962461 16.9453125,13.6596797 16.9453125,13.3689023 L16.9453125,13.3689023 L16.9453125,10.5522187 C16.9453125,9.67988672 16.2356133,8.9701875 15.3632812,8.9701875 L15.3632812,8.9701875 Z M3.51773438,2.9356875 C4.80969141,2.9356875 5.86075781,3.98675391 5.86075781,5.27871094 C5.86075781,6.57066797 4.80965625,7.62173437 3.51773438,7.62173437 C2.22577734,7.62173437 1.17471094,6.57066797 1.17471094,5.27871094 C1.17471094,3.98675391 2.22577734,2.9356875 3.51773438,2.9356875 Z M14.4822656,2.9356875 C15.7742227,2.9356875 16.8252891,3.98675391 16.8252891,5.27871094 C16.8252891,6.57066797 15.7742227,7.62173437 14.4822656,7.62173437 C13.1903437,7.62173437 12.1392422,6.57066797 12.1392422,5.27871094 C12.1392422,3.98675391 13.1903437,2.9356875 14.4822656,2.9356875 Z M3.51769922,3.990375 C2.80729688,3.990375 2.22936328,4.56830859 2.22936328,5.27871094 C2.22936328,5.98911328 2.80729688,6.56704687 3.51769922,6.56704687 C4.22810156,6.56704687 4.80603516,5.98911328 4.80603516,5.27871094 C4.80603516,4.56830859 4.22810156,3.990375 3.51769922,3.990375 Z M14.4822656,3.990375 C13.7718984,3.990375 13.1939648,4.56830859 13.1939297,5.27871094 C13.1939297,5.98911328 13.7718984,6.56704687 14.4822656,6.56704687 C15.192668,6.56704687 15.7706016,5.98911328 15.7706016,5.27871094 C15.7706016,4.56830859 15.192668,3.990375 14.4822656,3.990375 Z M9,0.0256289062 C10.7260313,0.0256289062 12.1302422,1.429875 12.1302422,3.15587109 C12.1302422,4.88190234 10.7260313,6.28611328 9,6.28611328 C7.27396875,6.28611328 5.86975781,4.88190234 5.86975781,3.15587109 C5.86975781,1.42983984 7.27396875,0.0256289062 9,0.0256289062 Z M9,1.08031641 C7.85552344,1.08031641 6.92444531,2.01142969 6.92444531,3.15587109 C6.92444531,4.30034766 7.85552344,5.23142578 9,5.23142578 C10.1444766,5.23142578 11.0755547,4.30034766 11.0755547,3.15587109 C11.0755547,2.01139453 10.1444766,1.08031641 9,1.08031641 Z"></path>
                        </g>
                    </g>
                </g>
            </g>
        </g>
    </g>
</svg>