<?xml version="1.0" encoding="UTF-8"?>
<svg width="19px" height="18px" viewBox="0 0 19 18" version="1.1" xmlns="http://www.w3.org/2000/svg" xmlns:xlink="http://www.w3.org/1999/xlink">
    <!-- Generator: Sketch 64 (93537) - https://sketch.com -->
    <title>icon_dashboard</title>
    <desc>Created with Sketch.</desc>
    <g id="Symbols" stroke="none" stroke-width="1" fill="none" fill-rule="evenodd">
        <g id="leftNavBar-collapsed" transform="translate(-20.000000, -21.000000)" fill="#07A39D">
            <g id="icon_dashboard-gray" transform="translate(20.500000, 21.000000)">
                <g id="icon_dashboard">
                    <path d="M16,6 C17.1045695,6 18,6.8954305 18,8 L18,16 C18,17.1045695 17.1045695,18 16,18 L12,18 C10.8954305,18 10,17.1045695 10,16 L10,8 C10,6.8954305 10.8954305,6 12,6 L16,6 Z M6,13 C7.1045695,13 8,13.8954305 8,15 L8,16 C8,17.1045695 7.1045695,18 6,18 L2,18 C0.8954305,18 0,17.1045695 0,16 L0,15 C0,13.8954305 0.8954305,13 2,13 L6,13 Z M16,7.2 L12,7.2 C11.592159,7.2 11.2555984,7.50518815 11.2062331,7.8996497 L11.2,8 L11.2,16 C11.2,16.407841 11.5051881,16.7444016 11.8996497,16.7937669 L12,16.8 L16,16.8 C16.407841,16.8 16.7444016,16.4948119 16.7937669,16.1003503 L16.8,16 L16.8,8 C16.8,7.59215895 16.4948119,7.25559842 16.1003503,7.20623314 L16,7.2 Z M6,14.2 L2,14.2 C1.59215895,14.2 1.25559842,14.5051881 1.20623314,14.8996497 L1.2,15 L1.2,16 C1.2,16.407841 1.50518815,16.7444016 1.8996497,16.7937669 L2,16.8 L6,16.8 C6.40784105,16.8 6.74440158,16.4948119 6.79376686,16.1003503 L6.8,16 L6.8,15 C6.8,14.592159 6.49481185,14.2555984 6.1003503,14.2062331 L6,14.2 Z M6,0 C7.1045695,0 8,0.8954305 8,2 L8,10 C8,11.1045695 7.1045695,12 6,12 L2,12 C0.8954305,12 0,11.1045695 0,10 L0,2 C0,0.8954305 0.8954305,0 2,0 L6,0 Z M6,1.2 L2,1.2 C1.59215895,1.2 1.25559842,1.50518815 1.20623314,1.8996497 L1.2,2 L1.2,10 C1.2,10.407841 1.50518815,10.7444016 1.8996497,10.7937669 L2,10.8 L6,10.8 C6.40784105,10.8 6.74440158,10.4948119 6.79376686,10.1003503 L6.8,10 L6.8,2 C6.8,1.59215895 6.49481185,1.25559842 6.1003503,1.20623314 L6,1.2 Z M16,0 C17.1045695,0 18,0.8954305 18,2 L18,3 C18,4.1045695 17.1045695,5 16,5 L12,5 C10.8954305,5 10,4.1045695 10,3 L10,2 C10,0.8954305 10.8954305,0 12,0 L16,0 Z M16,1.2 L12,1.2 C11.592159,1.2 11.2555984,1.50518815 11.2062331,1.8996497 L11.2,2 L11.2,3 C11.2,3.40784105 11.5051881,3.74440158 11.8996497,3.79376686 L12,3.8 L16,3.8 C16.407841,3.8 16.7444016,3.49481185 16.7937669,3.1003503 L16.8,3 L16.8,2 C16.8,1.59215895 16.4948119,1.25559842 16.1003503,1.20623314 L16,1.2 Z" id="Mask" fill-rule="nonzero"></path>
                </g>
            </g>
        </g>
    </g>
</svg>
