<?xml version="1.0" encoding="UTF-8"?>
<svg width="19px" height="18px" viewBox="0 0 19 18" version="1.1" xmlns="http://www.w3.org/2000/svg" xmlns:xlink="http://www.w3.org/1999/xlink">
    <!-- Generator: sketchtool 64 (101010) - https://sketch.com -->
    <title>C312E8F4-6A50-421B-81D0-8D55CEC46A40</title>
    <desc>Created with sketchtool.</desc>
    <g id="Dashboard---AdminSide" stroke="none" stroke-width="1" fill="none" fill-rule="evenodd">
        <g id="AdminSide---Dashboard---NavbarExpanded" transform="translate(-19.000000, -325.000000)" fill="#3E3E3E" fill-rule="nonzero" stroke="#FFFFFF" stroke-width="0.3">
            <g id="leftNavBar-expanded" transform="translate(-1.000000, 64.000000)">
                <g id="Group-7" transform="translate(20.500000, 260.000000)">
                    <g id="icon_hiring" transform="translate(0.000000, 2.000000)">
                        <g id="Combined-Shape">
                            <path d="M11.4042656,0.015609375 C12.2253047,0.015609375 12.8935898,0.68371875 12.8935898,1.50496875 L12.8935898,1.50496875 L12.893,2.50460937 L16.7234063,2.50498828 C17.3944182,2.50498828 17.929289,2.99792079 17.9935267,3.64929396 L18,3.78158203 L18,14.7390469 C18,15.454793 17.4391523,16.0156406 16.7234063,16.0156406 L16.7234063,16.0156406 L1.27659375,16.0156406 C0.560847656,16.0156406 0,15.454793 0,14.7390469 L0,14.7390469 L0,3.78158203 C0,3.06583594 0.560847656,2.50498828 1.27659375,2.50498828 L1.27659375,2.50498828 L5.106,2.50460937 L5.106375,1.50496875 C5.106375,0.731994485 5.69816393,0.0947364836 6.45249692,0.0224396054 L6.59573437,0.015609375 Z M6.106,8.27060937 L1.27,8.27060937 L1.27659375,14.7390117 L16.7234063,14.7390117 L16.723,8.27060937 L11.893,8.27060937 L11.8936055,10.6326211 C11.8936055,10.9531183 11.6576228,11.2184114 11.3496847,11.2639978 L11.2553086,11.270918 L6.74465625,11.270918 C6.39210937,11.270918 6.10635937,10.985168 6.10635937,10.6326211 L6.10635937,10.6326211 L6.106,8.27060937 Z M10.617,8.27060937 L7.382,8.27060937 L7.38295312,9.99432422 L10.6170117,9.99432422 L10.617,8.27060937 Z M16.7234063,3.78158203 L1.27659375,3.78158203 C1.26980859,3.78158203 1.26682031,3.78242578 1.26682031,3.78242578 L1.26682031,3.78242578 L1.269,6.99360937 L16.723,6.99360937 L16.7234063,3.78158203 Z M11.4042305,1.29220312 L6.59573437,1.29220312 C6.48042187,1.29220312 6.38296875,1.38965625 6.38296875,1.50496875 L6.38296875,1.50496875 L6.382,2.50460937 L11.616,2.50460937 L11.6169961,1.50496875 C11.6169961,1.408875 11.5493203,1.32518359 11.4600299,1.29995573 L11.4042305,1.29220312 Z"></path>
                        </g>
                    </g>
                </g>
            </g>
        </g>
    </g>
</svg>