<?xml version="1.0" encoding="UTF-8"?>
<svg width="19px" height="20px" viewBox="0 0 19 20" version="1.1" xmlns="http://www.w3.org/2000/svg" xmlns:xlink="http://www.w3.org/1999/xlink">
    <!-- Generator: sketchtool 64 (101010) - https://sketch.com -->
    <title>FA9A0986-0314-4D56-9C34-B9A4D571C60E</title>
    <desc>Created with sketchtool.</desc>
    <g id="Dashboard---AdminSide" stroke="none" stroke-width="1" fill="none" fill-rule="evenodd">
        <g id="AdminSide---Dashboard---NavbarExpanded" transform="translate(-19.000000, -244.000000)" fill="#3E3E3E" fill-rule="nonzero" stroke="#FFFFFF" stroke-width="0.4">
            <g id="leftNavBar-expanded" transform="translate(-1.000000, 64.000000)">
                <g id="Group-5" transform="translate(20.500000, 180.000000)">
                    <g id="icon_ideaboard" transform="translate(0.000000, 1.000000)">
                        <g id="Combined-Shape">
                            <path d="M15.75,0 C16.9909058,0 18,1.00909425 18,2.25 L18,2.25 L18,15.75 C18,16.9909058 16.9909058,18 15.75,18 L15.75,18 L2.25,18 C1.00909425,18 0,16.9909058 0,15.75 L0,15.75 L0,2.25 C0,1.00909425 1.00909425,0 2.25,0 L2.25,0 Z M13.5,6.68591306 L8.74804688,11.4375 L10.6552734,13.3447266 C10.9480591,13.6376953 10.9480591,14.1123047 10.6552734,14.4052734 C10.508606,14.5519409 10.3170776,14.625 10.125,14.625 C9.93292237,14.625 9.74139403,14.5519409 9.59472656,14.4049073 L9.59472656,14.4049073 L5.25,10.0605469 L1.5,13.8105469 L1.5,15.75 C1.5,16.1636353 1.83636473,16.5 2.25,16.5 L2.25,16.5 L15.75,16.5 C16.1636353,16.5 16.5,16.1636353 16.5,15.75 L16.5,15.75 L16.5,9.68591306 L13.5,6.68591306 Z M15.75,1.5 L2.25,1.5 C1.83636473,1.5 1.5,1.83636473 1.5,2.25 L1.5,2.25 L1.5,11.6894531 L4.71972656,8.46972656 C5.01269531,8.17694091 5.48730469,8.17694091 5.78027344,8.46972656 L5.78027344,8.46972656 L7.6875,10.3769531 L12.9697266,5.09472656 C13.2626953,4.80194091 13.7373047,4.80194091 14.0302734,5.09472656 L14.0302734,5.09472656 L16.5,7.56445312 L16.5,2.25 C16.5,1.83636473 16.1636353,1.5 15.75,1.5 L15.75,1.5 Z M4.5,3 C5.32836914,3 6,3.67163086 6,4.5 C6,5.32836914 5.32836914,6 4.5,6 C3.67163086,6 3,5.32836914 3,4.5 C3,3.67163086 3.67163086,3 4.5,3 Z"></path>
                        </g>
                    </g>
                </g>
            </g>
        </g>
    </g>
</svg>