<?xml version="1.0" encoding="UTF-8"?>
<svg width="20px" height="20px" viewBox="0 0 20 20" version="1.1" xmlns="http://www.w3.org/2000/svg" xmlns:xlink="http://www.w3.org/1999/xlink">
    <title>leads-teal</title>
    <g id="Symbols" stroke="none" stroke-width="1" fill="none" fill-rule="evenodd">
        <g id="icon-leads" transform="translate(1.000000, 1.000000)" fill="#07A39D" fill-rule="nonzero" stroke="#07A39D" stroke-width="0.3">
            <g id="leads-teal">
                <path d="M9,2.44249065e-15 C9.225,2.44249065e-15 9.375,0.15 9.375,0.375 L9.37495021,1.50932835 C13.2033269,1.70020088 16.2997991,4.79667307 16.4906716,8.62504979 L17.625,8.625 C17.85,8.625 18,8.775 18,9 C18,9.225 17.85,9.375 17.625,9.375 L16.4906716,9.37495021 C16.2997991,13.2033269 13.2033269,16.2997991 9.37495021,16.4906716 L9.375,17.625 C9.375,17.85 9.225,18 9,18 C8.775,18 8.625,17.85 8.625,17.625 L8.62504979,16.4906716 C4.79667307,16.2997991 1.70020088,13.2033269 1.50932835,9.37495021 L0.375,9.375 C0.15,9.375 2.44249065e-15,9.225 2.44249065e-15,9 C2.44249065e-15,8.775 0.15,8.625 0.375,8.625 L1.50932835,8.62504979 C1.70020088,4.79667307 4.79667307,1.70020088 8.62504979,1.50932835 L8.625,0.375 C8.625,0.15 8.775,2.44249065e-15 9,2.44249065e-15 Z M9.37468333,2.26003811 L9.375,3.375 C9.375,3.571875 9.26015625,3.71132813 9.08071289,3.74311523 L9,3.75 L9,3.75 C8.775,3.75 8.625,3.6 8.625,3.375 L8.62531667,2.26003811 C5.1761425,2.44540591 2.44540591,5.1761425 2.26003811,8.62531667 L3.375,8.625 C3.6,8.625 3.75,8.775 3.75,9 C3.75,9.225 3.6,9.375 3.375,9.375 L2.26003811,9.37468333 C2.44540591,12.8238575 5.1761425,15.5545941 8.62531667,15.7399619 L8.625,14.625 C8.625,14.4 8.775,14.25 9,14.25 C9.225,14.25 9.375,14.4 9.375,14.625 L9.37468333,15.7399619 C12.8238575,15.5545941 15.5545941,12.8238575 15.7399619,9.37468333 L14.625,9.375 C14.4,9.375 14.25,9.225 14.25,9 C14.25,8.775 14.4,8.625 14.625,8.625 L15.7399619,8.62531667 C15.5545941,5.1761425 12.8238575,2.44540591 9.37468333,2.26003811 Z M10.125,9 C11.175,9 12,9.825 12,10.875 L12,11.625 C12,11.85 11.85,12 11.625,12 C11.4,12 11.25,11.85 11.25,11.625 L11.25,10.875 C11.25,10.275 10.725,9.75 10.125,9.75 L7.875,9.75 C7.275,9.75 6.75,10.275 6.75,10.875 L6.75,11.625 C6.75,11.85 6.6,12 6.375,12 C6.15,12 6,11.85 6,11.625 L6,10.875 C6,9.825 6.825,9 7.875,9 L10.125,9 Z M9,5.25 C9.825,5.25 10.5,5.925 10.5,6.75 C10.5,7.575 9.825,8.25 9,8.25 C8.175,8.25 7.5,7.575 7.5,6.75 C7.5,5.925 8.175,5.25 9,5.25 Z M9,6 C8.55,6 8.25,6.3 8.25,6.75 C8.25,7.2 8.55,7.5 9,7.5 C9.45,7.5 9.75,7.2 9.75,6.75 C9.75,6.3 9.45,6 9,6 Z" id="Combined-Shape"></path>
            </g>
        </g>
    </g>
</svg>