<?xml version="1.0" encoding="UTF-8"?>
<svg width="20px" height="20px" viewBox="0 0 20 20" version="1.1" xmlns="http://www.w3.org/2000/svg" xmlns:xlink="http://www.w3.org/1999/xlink">
    <title>icon_marketing</title>
    <g id="Symbols" stroke="none" stroke-width="1" fill="none" fill-rule="evenodd">
        <g id="leftNavBar-collapsed" transform="translate(-21.000000, -380.000000)" fill="#3E3E3E" fill-rule="nonzero" stroke="#FFFFFF" stroke-width="0.2">
            <g id="icon_marketing-gray" transform="translate(22.000007, 381.000000)">
                <path d="M10.9744385,11.7658125 L14.9648135,15.7561875 L14.453501,16.146 C11.237337,18.6139336 6.76447759,18.6139336 3.54831352,16.146 L3.54831352,16.146 L3.03756352,15.755625 L7.02568852,11.7658125 L7.39468852,11.9660625 C8.39920806,12.4965 9.60091899,12.4965 10.6054385,11.9660625 L10.6054385,11.9660625 L10.9744385,11.7658125 Z M10.7573135,13.14 C9.63255962,13.608 8.36756743,13.608 7.24281352,13.14 L7.24281352,13.14 L4.75937602,15.6234375 C6.02243462,16.4409258 7.49551665,16.8745078 9.00006352,16.8716393 C10.5045049,16.8744375 11.9775166,16.4410664 13.240751,15.624 L13.240751,15.624 Z M8.43756352,5.06261699e-14 L8.43756352,5.644125 L8.03593852,5.7645 C7.81452446,5.83052344 7.60052837,5.91908203 7.39721977,6.02883984 C5.75700493,6.91432031 5.14518071,8.96178516 6.03062602,10.602 L6.03062602,10.602 L6.23087602,10.971 L2.24106352,14.96025 L1.85068852,14.4495 C-0.000147413301,12.032543 -0.500666945,8.84257031 0.520938524,5.974875 L0.520938524,5.974875 L1.58068852,6.352875 C0.76341118,8.64646875 1.05615727,11.1894258 2.37325102,13.2373125 L2.37325102,13.2373125 L4.85668852,10.753875 L4.85668852,10.753875 L4.82828227,10.6852852 C3.8963604,8.38135547 5.00863384,5.75817188 7.31256352,4.82625 L7.31256352,4.82625 L7.31256352,1.31175 C6.42391899,1.50475781 5.57595024,1.85203125 4.80718852,2.33775 L4.80718852,2.33775 L4.20812602,1.384875 C5.29779399,0.69721875 6.52344634,0.253757813 7.80081352,0.0849375 L7.80081352,0.0849375 L8.43756352,5.06261699e-14 Z M9.56256352,5.06261699e-14 L10.1993135,0.0849375 C14.6588135,0.693175781 17.9874424,4.49585156 18.0001089,8.996625 C18.003087,10.9684336 17.3520635,12.8855742 16.1489112,14.4478125 L16.1489112,14.4478125 L15.7590987,14.959125 L11.7692862,10.969875 L11.9695362,10.600875 C12.0792588,10.3975664 12.1678526,10.1835352 12.233876,9.96215625 C12.7665635,8.1759375 11.7504073,6.29609766 9.96418852,5.763375 L9.96418852,5.763375 L9.56256352,5.644125 L9.56256352,5.06261699e-14 Z M16.856501,9.50625 L14.375876,11.986875 L15.626876,13.2373125 C16.3498995,12.1194141 16.7731104,10.8346992 16.856501,9.50625 L16.856501,9.50625 Z M16.5116885,6.6673125 L13.4314385,9.7475625 C13.3744854,10.093043 13.2776651,10.4307188 13.142876,10.753875 L13.142876,10.753875 L13.5810635,11.190375 L16.7996885,7.9723125 C16.7413995,7.52983594 16.6450362,7.09323047 16.5116885,6.6673125 L16.5116885,6.6673125 Z M15.4688135,4.527 L13.0118135,6.984 C13.2011651,7.36003125 13.336376,7.76091797 13.4134385,8.1748125 L13.4134385,8.1748125 L16.0571885,5.5310625 C15.8858721,5.18245313 15.6892081,4.84685156 15.4688135,4.527 L15.4688135,4.527 Z M13.9354385,2.88225 L11.5268135,5.292 C11.8380518,5.50318359 12.1215166,5.75261719 12.3705635,6.0345 L12.3705635,6.0345 L14.7589385,3.646125 C14.5026143,3.37257422 14.2274463,3.11730469 13.9354385,2.88225 L13.9354385,2.88225 Z M1.61893852,3.8503125 L2.54087602,4.496625 C2.34069634,4.78290234 2.1599229,5.08225781 1.99975102,5.3926875 L1.99975102,5.3926875 L1.00018852,4.87575 C1.18356352,4.52063672 1.39028227,4.17807422 1.61893852,3.8503125 L1.61893852,3.8503125 Z M10.6875635,1.3123125 L10.6875635,4.539375 L12.9983135,2.228625 C12.2821104,1.80140625 11.5019229,1.49199609 10.6875635,1.3123125 L10.6875635,1.3123125 Z M3.23781352,2.09025 L3.95781352,2.9548125 C3.68872759,3.17882813 3.43486431,3.42049219 3.19787602,3.6781875 L3.19787602,3.6781875 L2.36931352,2.9165625 C2.64026274,2.62223438 2.93037212,2.3461875 3.23781352,2.09025 L3.23781352,2.09025 Z" id="marketing"></path>
            </g>
        </g>
    </g>
</svg>