<?xml version="1.0" encoding="UTF-8"?>
<svg width="20px" height="20px" viewBox="0 0 20 20" version="1.1" xmlns="http://www.w3.org/2000/svg" xmlns:xlink="http://www.w3.org/1999/xlink">
    <title>4F3C4A82-217E-4820-BA1D-4B806EA54788</title>
    <g id="Payment-Setup" stroke="none" stroke-width="1" fill="none" fill-rule="evenodd">
        <g id="Onboarding/paymentSetup/complete" transform="translate(-21.000000, -87.000000)" fill="#07A39D" fill-rule="nonzero" stroke="#07A39D" stroke-width="0.2">
            <g id="navbar/collapsed/contractorSide" transform="translate(0.000000, 64.000000)">
                <g id="icon_dashboard" transform="translate(22.000000, 24.000000)">
                    <path d="M13.8515625,0 C14.4331172,0 14.90625,0.473132812 14.90625,1.0546875 L14.90625,1.0546875 L14.90625,4.87792969 C14.90625,5.07209766 14.7488203,5.22949219 14.5546875,5.22949219 C14.3605547,5.22949219 14.203125,5.07209766 14.203125,4.87792969 L14.203125,4.87792969 L14.203125,1.0546875 C14.203125,0.860835937 14.0454141,0.703125 13.8515625,0.703125 L13.8515625,0.703125 L1.0546875,0.703125 C0.860835938,0.703125 0.703125,0.860835937 0.703125,1.0546875 L0.703125,1.0546875 L0.703125,16.9453125 C0.703125,17.1391641 0.860835938,17.296875 1.0546875,17.296875 L1.0546875,17.296875 L13.8515625,17.296875 C14.0454141,17.296875 14.203125,17.1391641 14.203125,16.9453125 L14.203125,16.9453125 L14.203125,14.3552812 C14.203125,14.1611133 14.3605547,14.0037187 14.5546875,14.0037187 C14.7488203,14.0037187 14.90625,14.1611133 14.90625,14.3552812 L14.90625,14.3552812 L14.90625,16.9453125 C14.90625,17.5268672 14.4331172,18 13.8515625,18 L13.8515625,18 L1.0546875,18 C0.473132812,18 0,17.5268672 0,16.9453125 L0,16.9453125 L0,1.0546875 C0,0.473132812 0.473132812,0 1.0546875,0 L1.0546875,0 Z M9.3515625,15.3984375 C9.54569531,15.3984375 9.703125,15.555832 9.703125,15.75 C9.703125,15.944168 9.54569531,16.1015625 9.3515625,16.1015625 L9.3515625,16.1015625 L7.453125,16.1015625 C7.25899219,16.1015625 7.1015625,15.944168 7.1015625,15.75 C7.1015625,15.555832 7.25899219,15.3984375 7.453125,15.3984375 L7.453125,15.3984375 Z M16.1410781,4.43404687 C16.5221016,4.33198828 16.92,4.38437109 17.261543,4.5815625 C17.9666367,4.98867187 18.2090742,5.89352344 17.8019648,6.59861719 L17.8019648,6.59861719 L13.3778672,14.2613789 C13.3536445,14.3033906 13.3209492,14.339918 13.2818906,14.3686758 L13.2818906,14.3686758 L11.0219062,16.0331133 C10.960207,16.0785703 10.8869414,16.1015977 10.8133945,16.1015977 C10.7528906,16.1015977 10.6922461,16.0859883 10.6376484,16.0544883 C10.5167109,15.9846328 10.4485781,15.8498086 10.4640469,15.7110117 L10.4640469,15.7110117 L10.7754609,12.9215742 C10.7808398,12.873375 10.796168,12.826793 10.8203906,12.7847812 L10.8203906,12.7847812 L15.2445234,5.12201953 C15.4416797,4.78047656 15.760125,4.53614062 16.1410781,4.43404687 Z M11.4146016,13.5338203 L11.2519687,14.9904141 L12.4320937,14.1212812 L11.4146016,13.5338203 Z M9.3515625,13.4296875 C9.54569531,13.4296875 9.703125,13.587082 9.703125,13.78125 C9.703125,13.975418 9.54569531,14.1328125 9.3515625,14.1328125 L9.3515625,14.1328125 L4.359375,14.1328125 C4.16524219,14.1328125 4.0078125,13.975418 4.0078125,13.78125 C4.0078125,13.587082 4.16524219,13.4296875 4.359375,13.4296875 L4.359375,13.4296875 Z M2.8575,13.4296875 C2.9503125,13.4296875 3.04066406,13.4673047 3.10637109,13.5326953 C3.17179688,13.5980859 3.20941406,13.6887891 3.20941406,13.78125 C3.20941406,13.8737109 3.17176172,13.9644141 3.10637109,14.0298047 C3.04101563,14.0951953 2.9503125,14.1328125 2.8575,14.1328125 C2.76500391,14.1328125 2.67430078,14.0951953 2.60894531,14.0298047 C2.54351953,13.9644141 2.5059375,13.8737109 2.5059375,13.78125 C2.5059375,13.6887891 2.54355469,13.5980859 2.60894531,13.5326953 C2.6746875,13.4673047 2.76500391,13.4296875 2.8575,13.4296875 Z M15.1553672,6.68271094 L11.6051133,12.8318906 L12.9447422,13.6053281 L16.4949961,7.45614844 L15.1553672,6.68271094 Z M9.3515625,11.4609375 C9.54569531,11.4609375 9.703125,11.618332 9.703125,11.8125 C9.703125,12.006668 9.54569531,12.1640625 9.3515625,12.1640625 L9.3515625,12.1640625 L4.359375,12.1640625 C4.16524219,12.1640625 4.0078125,12.006668 4.0078125,11.8125 C4.0078125,11.618332 4.16524219,11.4609375 4.359375,11.4609375 L4.359375,11.4609375 Z M2.8575,11.4609375 C2.9503125,11.4609375 3.04066406,11.4985547 3.10637109,11.5639453 C3.17179688,11.6293359 3.20941406,11.7200391 3.20941406,11.8125 C3.20941406,11.9049609 3.17176172,11.9956641 3.10637109,12.0610547 C3.04066406,12.1264453 2.9503125,12.1640625 2.8575,12.1640625 C2.76500391,12.1640625 2.6746875,12.1264453 2.60894531,12.0610547 C2.54351953,11.9956641 2.5059375,11.9049609 2.5059375,11.8125 C2.5059375,11.7200391 2.54355469,11.6293359 2.60894531,11.5639453 C2.6746875,11.4985547 2.76500391,11.4609375 2.8575,11.4609375 Z M2.8575,9.4921875 C2.9503125,9.4921875 3.04101563,9.52980469 3.10637109,9.59519531 C3.17179688,9.66058594 3.20941406,9.75128906 3.20941406,9.84375 C3.20941406,9.93621094 3.17176172,10.0269141 3.10637109,10.0923047 C3.04066406,10.1576953 2.9503125,10.1953125 2.8575,10.1953125 C2.76500391,10.1953125 2.6746875,10.1576953 2.60894531,10.0923047 C2.54351953,10.0269141 2.5059375,9.93621094 2.5059375,9.84375 C2.5059375,9.75128906 2.54355469,9.66058594 2.60894531,9.59519531 C2.67430078,9.52980469 2.76500391,9.4921875 2.8575,9.4921875 Z M9.3515625,9.4921875 C9.54569531,9.4921875 9.703125,9.64958203 9.703125,9.84375 C9.703125,10.037918 9.54569531,10.1953125 9.3515625,10.1953125 L9.3515625,10.1953125 L4.359375,10.1953125 C4.16524219,10.1953125 4.0078125,10.037918 4.0078125,9.84375 C4.0078125,9.64958203 4.16524219,9.4921875 4.359375,9.4921875 L4.359375,9.4921875 Z M7.453125,1.8984375 C9.23656641,1.8984375 10.6875,3.34937109 10.6875,5.1328125 C10.6875,6.05801953 10.2969141,6.89361328 9.67204688,7.48367578 C9.66033984,7.49615625 9.64789453,7.50803906 9.63428906,7.51883203 C9.05874609,8.04540234 8.29279688,8.36715234 7.45308984,8.36715234 C6.61338281,8.36715234 5.84743359,8.0454375 5.27189063,7.51883203 C5.25828516,7.50803906 5.24583984,7.49619141 5.23413281,7.48367578 L5.09417769,7.34321994 C4.55155695,6.76453014 4.21875,5.98684976 4.21875,5.1328125 C4.21875,3.34937109 5.66968359,1.8984375 7.453125,1.8984375 Z M7.453125,6.2578125 C6.80973047,6.2578125 6.23313281,6.60048047 5.92414453,7.14839063 C6.34925391,7.4716875 6.87905859,7.6640625 7.453125,7.6640625 C8.02719141,7.6640625 8.55696094,7.4716875 8.98210547,7.14839063 C8.67311719,6.60048047 8.09651953,6.2578125 7.453125,6.2578125 Z M16.9099453,5.19050391 C16.7310703,5.08721484 16.5226641,5.05972266 16.3230469,5.11323047 C16.1235,5.16670312 15.9567187,5.29467187 15.8534297,5.47358203 L15.8534297,5.47358203 L15.5068945,6.07380469 L16.8465234,6.84724219 L17.1930586,6.24701953 C17.2963477,6.06810937 17.3237695,5.85966797 17.2702969,5.66012109 C17.2168242,5.46057422 17.0888555,5.29379297 16.9099453,5.19050391 Z M7.453125,2.6015625 C6.05738672,2.6015625 4.921875,3.73707422 4.921875,5.1328125 C4.921875,5.69415234 5.10577734,6.21316406 5.41617187,6.63338672 C5.67544922,6.24884766 6.03478125,5.94977344 6.45198047,5.76513281 C6.28639453,5.55113672 6.1875,5.28307031 6.1875,4.9921875 L6.1875,4.9921875 L6.1875,4.76367188 C6.1875,4.06578516 6.75523828,3.49804688 7.453125,3.49804688 C8.15101172,3.49804688 8.71875,4.06578516 8.71875,4.76367188 L8.71875,4.76367188 L8.71875,4.9921875 C8.71875,5.28307031 8.61985547,5.55113672 8.45426953,5.76513281 C8.87146875,5.94977344 9.23080078,6.24884766 9.49007813,6.63338672 C9.80047266,6.21316406 9.984375,5.69415234 9.984375,5.1328125 C9.984375,3.73707422 8.84886328,2.6015625 7.453125,2.6015625 Z M7.453125,4.20117188 C7.14297656,4.20117188 6.890625,4.45352344 6.890625,4.76367188 L6.890625,4.76367188 L6.890625,4.9921875 C6.890625,5.30233594 7.14297656,5.5546875 7.453125,5.5546875 C7.76327344,5.5546875 8.015625,5.30233594 8.015625,4.9921875 L8.015625,4.9921875 L8.015625,4.76367188 C8.015625,4.45352344 7.76327344,4.20117188 7.453125,4.20117188 Z" id="Combined-Shape"></path>
                </g>
            </g>
        </g>
    </g>
</svg>