<?xml version="1.0" encoding="UTF-8"?>
<svg width="19px" height="17px" viewBox="0 0 19 17" version="1.1" xmlns="http://www.w3.org/2000/svg" xmlns:xlink="http://www.w3.org/1999/xlink">
    <!-- Generator: sketchtool 64 (101010) - https://sketch.com -->
    <title>9128CF13-3D04-4041-AAE7-58AEB0117A72</title>
    <desc>Created with sketchtool.</desc>
    <g id="Dashboard---AdminSide" stroke="none" stroke-width="1" fill="none" fill-rule="evenodd">
        <g id="AdminSide---Dashboard---NavbarExpanded" transform="translate(-19.000000, -165.000000)" fill="#07A39D" fill-rule="nonzero" stroke="#FFFFFF" stroke-width="0.3">
            <g id="leftNavBar-expanded" transform="translate(-1.000000, 64.000000)">
                <g id="Group-3" transform="translate(20.500000, 100.000000)">
                    <g id="icon_projects" transform="translate(0.000000, 2.000000)">
                        <g id="Combined-Shape">
                            <path d="M17.0145352,10.689082 C17.3724258,10.5349922 17.7887109,10.7011055 17.9425547,11.0599102 C18.0963984,11.4184688 17.9303203,11.8340508 17.5717266,11.9879297 L17.5717266,11.9879297 L9.27875391,15.5456719 C9.18970312,15.5838164 9.09474609,15.6029063 9.00003516,15.6029063 C8.90532422,15.6029063 8.81036719,15.5838516 8.72131641,15.5456719 L8.72131641,15.5456719 L0.42834375,11.9879297 C0.0695390625,11.8340859 -0.0965742188,11.4185039 0.057515625,11.0599102 C0.211359375,10.7013516 0.626238281,10.5345352 0.985535156,10.689082 L0.985535156,10.689082 L9.00003516,14.1271172 Z M17.0159414,7.1544375 C17.3747812,7.00150781 17.7898711,7.16857031 17.9432578,7.527375 C18.0961523,7.88663672 17.929125,8.30176172 17.5700742,8.45465625 L17.5700742,8.45465625 L9.27710156,11.9885977 C9.18875391,12.0262852 9.09428906,12.0451289 9.00003516,12.0451289 C8.90578125,12.0451289 8.8115625,12.0262852 8.72296875,11.9885977 L8.72296875,11.9885977 L0.429996094,8.45469141 C0.0709453125,8.30179688 -0.0960820313,7.88667188 0.0570585937,7.527375 C0.209988281,7.16857031 0.625078125,7.00129688 0.984375,7.1544375 L0.984375,7.1544375 L9.00003516,10.5703242 Z M8.72131641,0.063703125 C8.89920703,-0.0126210937 9.10040625,-0.0126210937 9.27850781,0.063703125 L9.27850781,0.063703125 L17.5714805,3.62119922 C17.8316016,3.73260938 17.9998242,3.98872266 17.9995433,4.27141406 C17.999332,4.55435156 17.8301602,4.80997266 17.5698281,4.92071484 L17.5698281,4.92071484 L9.27685547,8.45465625 C9.18875391,8.49234375 9.09428906,8.5111875 9.00003516,8.5111875 C8.90578125,8.5111875 8.8115625,8.49234375 8.72296875,8.45465625 L8.72296875,8.45465625 L0.429996094,4.92075 C0.169910156,4.80979688 0.00073828125,4.55438672 0.000280980356,4.27144922 C3.51562499e-05,3.98851172 0.168257812,3.73264453 0.42834375,3.62119922 L0.42834375,3.62119922 Z M9.00003516,1.48222266 L2.50488281,4.26860156 L9.00003516,7.03638281 L15.4951875,4.26860156 L9.00003516,1.48222266 Z"></path>
                        </g>
                    </g>
                </g>
            </g>
        </g>
    </g>
</svg>
