<?xml version="1.0" encoding="UTF-8"?>
<svg width="20px" height="20px" viewBox="0 0 20 20" version="1.1" xmlns="http://www.w3.org/2000/svg" xmlns:xlink="http://www.w3.org/1999/xlink">
    <title>icon_sales</title>
    <g id="Symbols" stroke="none" stroke-width="1" fill="none" fill-rule="evenodd">
        <g id="leftNavBar-collapsed" transform="translate(-20.000000, -340.000000)" fill="#3E3E3E" fill-rule="nonzero" stroke="#FFFFFF" stroke-width="0.15">
            <g id="icon_sales-gray" transform="translate(21.000000, 341.001547)">
                <path d="M16.3828125,5.2734375 C16.6740875,5.2734375 16.9101562,5.50950623 16.9101562,5.80078125 L16.9101562,5.80078125 L16.9101562,16.9453125 L17.4726562,16.9453125 C17.7639313,16.9453125 18,17.1813812 18,17.4726562 C18,17.7639313 17.7639313,18 17.4726562,18 L17.4726562,18 L0.52734375,18 C0.236068734,18 0,17.7639313 0,17.4726562 C0,17.1813812 0.236068734,16.9453125 0.52734375,16.9453125 L0.52734375,16.9453125 L1.08984375,16.9453125 L1.08984375,11.0742188 C1.08984375,10.7829437 1.32591248,10.546875 1.6171875,10.546875 L1.6171875,10.546875 L3.7265625,10.546875 C4.01783752,10.546875 4.25390625,10.7829437 4.25390625,11.0742188 L4.25390625,11.0742188 L4.25390625,16.9453125 L5.30859375,16.9453125 L5.30859375,13.1835938 C5.30859375,12.8923187 5.54466248,12.65625 5.8359375,12.65625 L5.8359375,12.65625 L7.9453125,12.65625 C8.23658752,12.65625 8.47265625,12.8923187 8.47265625,13.1835938 L8.47265625,13.1835938 L8.47265625,16.9453125 L9.52734375,16.9453125 L9.52734375,8.96484375 C9.52734375,8.67356873 9.76341248,8.4375 10.0546875,8.4375 L10.0546875,8.4375 L12.1640625,8.4375 C12.4553375,8.4375 12.6914062,8.67356873 12.6914062,8.96484375 L12.6914062,8.96484375 L12.6914062,16.9453125 L13.7460938,16.9453125 L13.7460938,5.80078125 C13.7460938,5.50950623 13.9821625,5.2734375 14.2734375,5.2734375 L14.2734375,5.2734375 Z M15.8554688,6.328125 L14.8007812,6.328125 L14.8007812,16.9453125 L15.8554688,16.9453125 L15.8554688,6.328125 Z M11.6367188,9.4921875 L10.5820312,9.4921875 L10.5820312,16.9453125 L11.6367188,16.9453125 L11.6367188,9.4921875 Z M7.41796875,13.7109375 L6.36328125,13.7109375 L6.36328125,16.9453125 L7.41796875,16.9453125 L7.41796875,13.7109375 Z M3.19921875,11.6015625 L2.14453125,11.6015625 L2.14453125,16.9453125 L3.19921875,16.9453125 L3.19921875,11.6015625 Z M15.328125,0 C16.2004395,0 16.9101562,0.709716797 16.9101562,1.58203125 C16.9101562,2.4543457 16.2004395,3.1640625 15.328125,3.1640625 C15.0041656,3.1640625 14.7028656,3.06614686 14.451828,2.898468 L14.451828,2.898468 L12.6190338,4.272995 C12.6660004,4.42240907 12.6914062,4.58129883 12.6914062,4.74609375 C12.6914062,5.6184082 11.9816895,6.328125 11.109375,6.328125 C10.8654785,6.328125 10.6342163,6.27250672 10.4276733,6.17349241 L10.4276733,6.17349241 L8.31802366,8.28314209 C8.41703797,8.48968506 8.47265625,8.72094727 8.47265625,8.96484375 C8.47265625,9.8371582 7.76293945,10.546875 6.890625,10.546875 C6.01831055,10.546875 5.30859375,9.8371582 5.30859375,8.96484375 C5.30859375,8.89865114 5.3131256,8.83369445 5.32109071,8.76969911 L5.32109071,8.76969911 L3.76899718,7.99365234 C3.48431396,8.26817323 3.09759521,8.4375 2.671875,8.4375 C1.79956055,8.4375 1.08984375,7.7277832 1.08984375,6.85546875 C1.08984375,5.9831543 1.79956055,5.2734375 2.671875,5.2734375 C3.54418945,5.2734375 4.25390625,5.9831543 4.25390625,6.85546875 C4.25390625,6.92166136 4.2493744,6.98661805 4.24140929,7.05061339 L4.24140929,7.05061339 L5.79350282,7.82666016 C6.07818604,7.55213927 6.46490479,7.3828125 6.890625,7.3828125 C7.13452148,7.3828125 7.36578369,7.43843078 7.57232666,7.53744509 L7.57232666,7.53744509 L9.68197634,5.42779541 C9.58296203,5.22125244 9.52734375,4.98999023 9.52734375,4.74609375 C9.52734375,3.8737793 10.2370605,3.1640625 11.109375,3.1640625 C11.4333344,3.1640625 11.7346344,3.26197814 11.985672,3.429657 L11.985672,3.429657 L13.8184662,2.05513 C13.7714996,1.90571593 13.7460938,1.74682617 13.7460938,1.58203125 C13.7460938,0.709716797 14.4558105,0 15.328125,0 Z M6.890625,8.4375 C6.5998993,8.4375 6.36328125,8.67411805 6.36328125,8.96484375 C6.36328125,9.25556945 6.5998993,9.4921875 6.890625,9.4921875 C7.1813507,9.4921875 7.41796875,9.25556945 7.41796875,8.96484375 C7.41796875,8.67411805 7.1813507,8.4375 6.890625,8.4375 Z M2.671875,6.328125 C2.3811493,6.328125 2.14453125,6.56474305 2.14453125,6.85546875 C2.14453125,7.14619445 2.3811493,7.3828125 2.671875,7.3828125 C2.9626007,7.3828125 3.19921875,7.14619445 3.19921875,6.85546875 C3.19921875,6.56474305 2.9626007,6.328125 2.671875,6.328125 Z M11.109375,4.21875 C10.8186493,4.21875 10.5820312,4.45536805 10.5820312,4.74609375 C10.5820312,5.03681945 10.8186493,5.2734375 11.109375,5.2734375 C11.4001007,5.2734375 11.6367188,5.03681945 11.6367188,4.74609375 C11.6367188,4.45536805 11.4001007,4.21875 11.109375,4.21875 Z M15.328125,1.0546875 C15.0373993,1.0546875 14.8007812,1.29130555 14.8007812,1.58203125 C14.8007812,1.87275695 15.0373993,2.109375 15.328125,2.109375 C15.6188507,2.109375 15.8554688,1.87275695 15.8554688,1.58203125 C15.8554688,1.29130555 15.6188507,1.0546875 15.328125,1.0546875 Z" id="icon_sales"></path>
            </g>
        </g>
    </g>
</svg>